<svg width="200mm" height="200mm" version="1.1" viewBox="0 0 200 200" xmlns="http://www.w3.org/2000/svg">
 <g transform="translate(-41.768 -.58185)" fill="white">
  <path d="m93.542 33.231 115.58 115.58c5.2975 5.2975 5.2974 13.827 0 19.124-5.2975 5.2975-13.827 5.2974-19.124 0l-115.58-115.58c-5.2975-5.2975-5.2974-13.827 0-19.124 5.2975-5.2975 13.827-5.2974 19.124-2e-6z"/>
  <path d="m74.415 148.81 115.58-115.58c5.2975-5.2975 13.827-5.2974 19.124 1e-6 5.2975 5.2975 5.2974 13.827 0 19.124l-115.58 115.58c-5.2975 5.2975-13.827 5.2974-19.124 0-5.2975-5.2975-5.2974-13.827-1e-6 -19.124z"/>
  <path d="m111.4 86.765h60.73c4.5788 0 8.2649 6.0313 8.2649 13.523 0 7.4918-3.6862 13.523-8.2649 13.523h-60.73c-4.5788 0-8.2649-6.0313-8.2649-13.523 0-7.4918 3.6862-13.523 8.2649-13.523z" stroke-width=".78177"/>
 </g>
</svg>
