<svg width="200mm" height="200mm" version="1.1" viewBox="0 0 200 200" xmlns="http://www.w3.org/2000/svg">
 <g transform="translate(-41.768 -.58185)" fill="white">
  <path d="m60.041 22.677h163.45c7.4918 0 13.523 6.0313 13.523 13.523v2e-6c0 7.4918-6.0313 13.523-13.523 13.523h-163.45c-7.4918 0-13.523-6.0313-13.523-13.523v-2e-6c0-7.4918 6.0313-13.523 13.523-13.523z" />
  <path d="m60.041 151.44h163.45c7.4918 0 13.523 6.0313 13.523 13.523 0 7.4918-6.0313 13.523-13.523 13.523h-163.45c-7.4918 0-13.523-6.0313-13.523-13.523 0-7.4918 6.0313-13.523 13.523-13.523z" />
  <path d="m92.085 86.765h99.366c7.4918 0 13.523 6.0313 13.523 13.523 0 7.4918-6.0313 13.523-13.523 13.523h-99.366c-7.4918 0-13.523-6.0313-13.523-13.523 0-7.4918 6.0313-13.523 13.523-13.523z" />
 </g>
</svg>
